<svg xmlns="http://www.w3.org/2000/svg" viewBox="0 0 300 315.65"><defs><style>.cls-1{fill:#ebebeb;}.cls-2,.cls-6{fill:#fff;}.cls-3{fill:#f5f5f5;}.cls-4{fill:#e0e0e0;}.cls-5{fill:#e8505b;}.cls-6{fill-rule:evenodd;}.cls-7{fill:#455a64;}.cls-8{fill:#263238;}.cls-9{fill:#ffbe9d;}.cls-10{opacity:0.4;}.cls-11{opacity:0.5;}.cls-12{opacity:0.6;}.cls-13{fill:#eb996e;}</style></defs><g id="Layer_2" data-name="Layer 2"><g id="Stars"><path class="cls-1" d="M62.47,72.51h0A24.24,24.24,0,0,1,38.24,48.27h0A24.23,24.23,0,0,1,62.47,24h0A24.24,24.24,0,0,1,86.71,48.27h0A24.24,24.24,0,0,1,62.47,72.51Z"/><rect class="cls-2" x="51.48" y="42.86" width="5.02" height="16.21"/><path class="cls-2" d="M54,40.74a3,3,0,1,0-3-3A3,3,0,0,0,54,40.74Z"/><path class="cls-2" d="M64.52,50.56c0-2.27,1-3.63,3-3.63s2.74,1.3,2.74,3.63v8.51h5V48.81c0-4.34-2.46-6.44-5.9-6.44a5.64,5.64,0,0,0-4.88,2.68V42.86H59.71V59.07h4.81Z"/><polygon class="cls-3" points="94.96 0 98.28 6.07 104.34 9.39 98.28 12.71 94.96 18.77 91.64 12.71 85.57 9.39 91.64 6.07 94.96 0"/><polygon class="cls-1" points="233.37 164.41 235.86 168.96 240.41 171.45 235.86 173.94 233.37 178.49 230.88 173.94 226.33 171.45 230.88 168.96 233.37 164.41"/><polygon class="cls-4" points="240.41 141.94 241.54 143.99 243.59 145.11 241.54 146.23 240.41 148.29 239.29 146.23 237.24 145.11 239.29 143.99 240.41 141.94"/><polygon class="cls-4" points="71.25 2.28 72.38 4.34 74.43 5.46 72.38 6.58 71.25 8.64 70.13 6.58 68.08 5.46 70.13 4.34 71.25 2.28"/><path class="cls-4" d="M15,193.05a7.35,7.35,0,0,0,4.29-6.84,7.14,7.14,0,0,0-6.95-7.29,7.13,7.13,0,0,0-6.82,7.4A7.32,7.32,0,0,0,10,193.11C-.62,194.85,0,206.35,0,206.35l25-.21S25.47,194.5,15,193.05Z"/><path class="cls-1" d="M255.14,268.88a3.9,3.9,0,0,0-7.69.22,3.9,3.9,0,0,0-7.69-.16,5.29,5.29,0,0,0,1,3.8,15.41,15.41,0,0,0,2.75,2.9l4.09,3.67c1.39-1.26,2.57-2.44,4-3.7a15.72,15.72,0,0,0,2.72-2.93A5.24,5.24,0,0,0,255.14,268.88Z"/><path class="cls-4" d="M271.45,119.75l2.68-.53,4.24-9.32-1.06-5.36s4.09-1.08,5,6,1.07,5.22,1.07,5.22,8.82-1.71,9.7-1.09c.64.45,2.62,9.15,3.65,13.88a5.23,5.23,0,0,1-2.61,5.89,4.45,4.45,0,0,1-.93.32c-2.19.43-13.77.87-13.77.87l-4.63.92Z"/><polygon class="cls-4" points="263.48 119.8 268.76 137.83 273.36 136.92 269.79 118.93 263.48 119.8"/><path class="cls-5" d="M244.38,112.67h0A28.74,28.74,0,0,1,206,99.4h0A28.74,28.74,0,0,1,219.24,61h0a28.74,28.74,0,0,1,38.42,13.27h0A28.74,28.74,0,0,1,244.38,112.67Z"/><path class="cls-2" d="M224.71,93.25a.68.68,0,0,0,.67-.87c-.07-.35-.26-1.22-.33-1.59s-.22-.63-.73-.86A5.67,5.67,0,0,1,221.47,87,9.29,9.29,0,0,1,226,74.37c4.74-2.3,8.75-.68,10.63,3.19,2.47,5.08,2.31,10.47-1,12.09a3,3,0,0,1-4.44-2c-.55-2.49-.7-5.4-1.48-7-.71-1.45-2.07-2.27-3.67-1.5-1.89.92-2.45,3.61-1.18,6.22a7.51,7.51,0,0,0,1.92,2.52s2.05,9.12,2.4,10.71a22.18,22.18,0,0,0,3.21,6.73.26.26,0,0,0,.47-.1,21.1,21.1,0,0,0,.38-7.32c-.17-.89-1.12-5.45-1.12-5.45a5.62,5.62,0,0,0,5.38.1c5.66-2.76,7-9.8,3.63-16.71-2.54-5.23-9.34-8-16.07-4.68-8.38,4.08-9.69,12.14-7.25,17.15C219.3,91.3,221.76,93.44,224.71,93.25Z"/><path class="cls-5" d="M273.09,193.75h0a19.82,19.82,0,0,1-11.44-25.59h0a19.83,19.83,0,0,1,25.6-11.44h0a19.82,19.82,0,0,1,11.44,25.59h0A19.83,19.83,0,0,1,273.09,193.75Z"/><path class="cls-6" d="M290.52,178.6a10.68,10.68,0,0,0-19.86-7.8l-.18.43a10.53,10.53,0,0,0-.52,5.66l-3.83,4.62,6.19.36a10.7,10.7,0,0,0,18.11-3Zm-13.25,4.76a8.92,8.92,0,0,1-4.08-3.14l-3.62-.2,2.23-2.69a8.78,8.78,0,0,1,.27-5.49,7,7,0,0,1,.35-.79,9,9,0,0,1,16.64,6.54c-.06.22-.14.44-.22.66A9,9,0,0,1,277.27,183.36Z"/><path class="cls-6" d="M284.26,178.79c-.2-.22-1.17-1.26-1.37-1.43s-.34-.27-.6-.09a12.73,12.73,0,0,1-1.13.65c-.21.11-.36.08-.56-.14a6.9,6.9,0,0,1-1.5-1.95,7.54,7.54,0,0,1-.72-2.2c-.05-.3.13-.38.29-.45s.36-.2.54-.29l.13-.08.26-.23a.47.47,0,0,0,.15-.43c0-.15-.05-1.53-.07-2.09s-.25-.56-.4-.62-.29-.14-.46-.2a1,1,0,0,0-.77.06,2.86,2.86,0,0,0-1.62,1.7,3,3,0,0,0-.19.87,5.73,5.73,0,0,0,.23,2,10.69,10.69,0,0,0,2.77,5.26c2.12,1.92,2.24,1.6,2.71,1.73a2.64,2.64,0,0,0,2.09-.52,2.18,2.18,0,0,0,.58-1.1C284.6,179.13,284.46,179,284.26,178.79Z"/><path class="cls-5" d="M15.3,102.13h0A15.11,15.11,0,0,1,.19,87h0A15.11,15.11,0,0,1,15.3,71.89h0A15.12,15.12,0,0,1,30.42,87h0A15.12,15.12,0,0,1,15.3,102.13Z"/><path class="cls-2" d="M7.25,92.07a9.39,9.39,0,0,0,14.46-8.35A6.71,6.71,0,0,0,23.36,82a6.37,6.37,0,0,1-1.9.52,3.27,3.27,0,0,0,1.45-1.83,6.6,6.6,0,0,1-2.1.81,3.27,3.27,0,0,0-2.41-1.05,3.31,3.31,0,0,0-3.22,4.06,9.39,9.39,0,0,1-6.81-3.45,3.3,3.3,0,0,0,1,4.41,3.38,3.38,0,0,1-1.49-.41,3.3,3.3,0,0,0,2.65,3.28,3.28,3.28,0,0,1-1.5.06,3.32,3.32,0,0,0,3.09,2.29A6.63,6.63,0,0,1,7.25,92.07Z"/><path class="cls-7" d="M42.47,271.48h0a26,26,0,0,1-31.36-19.3h0A26,26,0,0,1,30.4,220.82h0a26.05,26.05,0,0,1,31.37,19.29h0A26.05,26.05,0,0,1,42.47,271.48Z"/><path class="cls-2" d="M33.72,234.76c3.71-.88,4.16-1,5.64-1.25a8,8,0,0,1,2.69-.14,4.43,4.43,0,0,1,1.84.66,4.36,4.36,0,0,1,1.42,1.35,7.64,7.64,0,0,1,1.09,2.46c.42,1.45.54,1.89,1.42,5.6s1,4.15,1.26,5.63a7.69,7.69,0,0,1,.13,2.69,4.28,4.28,0,0,1-.65,1.84A4.37,4.37,0,0,1,47.21,255a8,8,0,0,1-2.47,1.1c-1.45.41-1.88.53-5.59,1.41s-4.15,1-5.63,1.26a8,8,0,0,1-2.69.14,4.73,4.73,0,0,1-3.27-2,8.08,8.08,0,0,1-1.09-2.47c-.42-1.45-.54-1.88-1.42-5.59s-1-4.15-1.25-5.63a7.77,7.77,0,0,1-.14-2.69,4.73,4.73,0,0,1,2-3.27,7.87,7.87,0,0,1,2.46-1.09c1.45-.42,1.89-.53,5.59-1.42m-.59-2.5c-3.77.9-4.24,1-5.71,1.45a10.3,10.3,0,0,0-3.21,1.45,6.91,6.91,0,0,0-2.08,2.18,7.06,7.06,0,0,0-1,2.85,10.4,10.4,0,0,0,.16,3.52c.28,1.5.38,2,1.28,5.75s1,4.24,1.45,5.7a10.37,10.37,0,0,0,1.45,3.22,7,7,0,0,0,2.18,2.08,6.91,6.91,0,0,0,2.84,1,10.41,10.41,0,0,0,3.53-.15c1.5-.29,2-.39,5.75-1.28s4.24-1,5.7-1.45a10.6,10.6,0,0,0,3.22-1.45,7.27,7.27,0,0,0,3.09-5,10.35,10.35,0,0,0-.15-3.52c-.29-1.5-.39-2-1.29-5.75s-1-4.24-1.44-5.71a10.53,10.53,0,0,0-1.45-3.21,7,7,0,0,0-2.19-2.08,7,7,0,0,0-2.84-1,10.46,10.46,0,0,0-3.53.16c-1.49.29-2,.38-5.74,1.28"/><path class="cls-2" d="M34.74,239a7.33,7.33,0,1,0,8.83,5.43A7.32,7.32,0,0,0,34.74,239m2.8,11.76a4.76,4.76,0,1,1,3.53-5.73,4.75,4.75,0,0,1-3.53,5.73"/><path class="cls-2" d="M43.75,236.57a1.71,1.71,0,1,1-2.06-1.27,1.72,1.72,0,0,1,2.06,1.27"/><path class="cls-7" d="M239.7,248.56h0a12.15,12.15,0,0,1-12.15-12.14h0a12.14,12.14,0,0,1,12.15-12.14h0a12.14,12.14,0,0,1,12.14,12.14h0A12.15,12.15,0,0,1,239.7,248.56Z"/><path class="cls-2" d="M237.85,243.76h3v-7.4h2.06l.22-2.48H240.8v-1.41c0-.59.12-.82.68-.82h1.6v-2.57h-2c-2.2,0-3.19,1-3.19,2.82v2h-1.54v2.51h1.54Z"/><path class="cls-8" d="M198.28,315.65l-97.55-.06A21.24,21.24,0,0,1,79.5,294.33l0-244.56A21.25,21.25,0,0,1,100.8,28.53l97.56,0a21.25,21.25,0,0,1,21.23,21.26l0,244.56A21.27,21.27,0,0,1,198.28,315.65Z"/><path class="cls-2" d="M198.25,37.23H179.34a4.7,4.7,0,0,0-4.59,4.8v3.43a4.69,4.69,0,0,1-4.59,4.8l-36.86,0a4.71,4.71,0,0,1-4.6-4.81V42a4.7,4.7,0,0,0-4.59-4.8H100.9A14.87,14.87,0,0,0,86,52.06L86,290.77a14.88,14.88,0,0,0,14.87,14.88l97.36.06a14.89,14.89,0,0,0,14.89-14.88l0-238.71A14.89,14.89,0,0,0,198.25,37.23Z"/><path class="cls-8" d="M199.68,56.63c0,.06-2.46.13-5.5.16s-5.49,0-5.49-.07,2.46-.14,5.49-.16S199.68,56.56,199.68,56.63Z"/><path class="cls-8" d="M199.7,59.44c0,.06-2.46.13-5.49.16s-5.5,0-5.5-.07,2.46-.14,5.5-.16S199.7,59.37,199.7,59.44Z"/><path class="cls-8" d="M199.72,62.25c0,.06-2.46.14-5.49.16s-5.49,0-5.49-.07,2.45-.14,5.49-.16S199.72,62.19,199.72,62.25Z"/><path class="cls-8" d="M96.23,65l.29,0,.8,0,3-.07-.09.08c0-.66,0-1.37,0-2.15,0-.39,0-.77,0-1.23a1.14,1.14,0,0,1,1-.91c.47,0,.89,0,1.41,0a1.16,1.16,0,0,1,1,1.14c0,1,0,2.05,0,3.13l-.13-.13,3.73,0-.15.14c0-1.5,0-3.05,0-4.65,0-.39,0-.79,0-1.18a1.2,1.2,0,0,0-.52-.88l-1.63-1.61L103.24,55l-.76-.75c-.26-.26-.47-.52-.77-.58a1,1,0,0,0-.85.16c-.23.2-.47.47-.7.69L98.82,55.9c-.84.87-1.72,1.67-2.35,2.43a2.61,2.61,0,0,0-.19,1.39V61c0,.81,0,1.51,0,2.12s0,1,0,1.35,0,.48,0,.49a2.42,2.42,0,0,1,0-.45c0-.36,0-.8,0-1.33s0-1.32,0-2.13c0-.43,0-.87,0-1.34,0-.24,0-.49,0-.74a1.58,1.58,0,0,1,.21-.78c.69-.84,1.51-1.59,2.36-2.49.43-.44.87-.9,1.33-1.36.24-.24.43-.47.72-.72a1.26,1.26,0,0,1,1.08-.21,2,2,0,0,1,.89.64l.77.75L105,56.38l1.63,1.6a3.7,3.7,0,0,1,.42.45,1.19,1.19,0,0,1,.19.63c0,.4,0,.79,0,1.19,0,1.59,0,3.15,0,4.65V65h-.14l-3.73,0h-.14v-.14c0-1.08,0-2.12,0-3.12a.89.89,0,0,0-.75-.91c-.43,0-.93,0-1.35,0a.92.92,0,0,0-.81.72c0,.38,0,.81,0,1.19V65h-.08l-3,0h-.78A1.1,1.1,0,0,1,96.23,65Z"/><path class="cls-7" d="M160.58,251.52a4.86,4.86,0,0,1-1,.07l-2.79.06c-2.35,0-5.6,0-9.19,0s-6.85,0-9.2,0l-2.79-.06a4.86,4.86,0,0,1-1-.07,5.93,5.93,0,0,1,1-.07l2.79-.06c2.35,0,5.6,0,9.2,0s6.84,0,9.19,0l2.79.06A5.93,5.93,0,0,1,160.58,251.52Z"/><path class="cls-7" d="M201.47,257.92c0,.1-15,.18-33.45.18s-33.45-.08-33.45-.18,15-.18,33.45-.18S201.47,257.82,201.47,257.92Z"/><path class="cls-7" d="M180.56,263.94c0,.1-10.29.18-23,.18s-23-.08-23-.18,10.29-.18,23-.18S180.56,263.84,180.56,263.94Z"/><path class="cls-8" d="M202.79,275.66l-2.08-2.09-2,2v-6h4.06Zm-2.08-2.34.07.06,1.83,1.84v-5.45h-3.7v5.35Z"/><path class="cls-8" d="M147.44,274.88l-.73-.32a2.18,2.18,0,0,1-1,.29,2.06,2.06,0,1,1,1.51-.7Zm-1.71-4a1.9,1.9,0,0,0,0,3.8,2,2,0,0,0,.91-.29l0,0,.54.24-.12-.53,0,0a1.86,1.86,0,0,0,.49-1.29A1.9,1.9,0,0,0,145.73,270.91Z"/><path class="cls-8" d="M152.16,274.57l-.84-2.05-1.58-1.44,3.82,0Zm-2.06-3.35,1.34,1.23.72,1.75,1.2-3Z"/><rect class="cls-8" x="151.24" y="271.72" width="2.49" height="0.14" transform="translate(-123.56 127.16) rotate(-33.05)"/><path class="cls-5" d="M141.43,271.51a1.19,1.19,0,0,0-2.34.08,1.18,1.18,0,0,0-2.33,0,1.64,1.64,0,0,0,.29,1.15,5,5,0,0,0,.84.88l1.24,1.1c.42-.38.78-.74,1.2-1.12a5,5,0,0,0,.82-.9A1.58,1.58,0,0,0,141.43,271.51Z"/><path class="cls-8" d="M207.05,280.94s0-.23,0-.67,0-1.09,0-1.93c0-1.71,0-4.22,0-7.47,0-6.5,0-16-.06-27.83l.12.12-113.14.06h0l.18-.18c0,13.17,0,26,0,37.9l-.17-.18,81,.08,23.64.05,6.34,0h0l-6.3,0L175,281l-81.08.09h-.18v-.18c0-11.95,0-24.73,0-37.9v-.18h.19l113.14.06h.12V243c0,11.9,0,21.38-.07,27.9,0,3.24,0,5.74,0,7.44,0,.84,0,1.48,0,1.92S207.05,280.94,207.05,280.94Z"/><rect class="cls-1" x="101.68" y="246.32" width="25.06" height="31.34" transform="translate(-148.42 374.71) rotate(-89.67)"/><path class="cls-8" d="M130,249.55h-8.74l-22.6,0,.17-.17c0,7.46-.08,16-.13,25.06,0,0-.34-.35-.17-.19h4.3l4.22,0,8.13.06,14.68.1-.15.15c.07-7.52.13-13.76.18-18.14,0-2.18,0-3.9.07-5.09,0-.58,0-1,0-1.35s0-.47,0-.47,0,.14,0,.44,0,.76,0,1.32c0,1.18,0,2.89,0,5.05,0,4.41,0,10.68,0,18.25v.15h-.15l-14.68-.06-8.13,0-4.22,0-2.15,0H98.47l-.19-.19c.06-9,.12-17.59.17-25.05v-.16h.16l22.71.21,6.39.08,1.68,0H130Z"/><rect class="cls-4" x="103.24" y="247.42" width="21.9" height="29.14" transform="translate(-148.44 374.69) rotate(-89.67)"/><polygon class="cls-3" points="99.56 272.86 109.81 259.3 116.07 267.85 120.37 263.32 128.7 273.02 99.56 272.86"/><path class="cls-3" d="M118.8,257.68a2.3,2.3,0,1,1-2.28-2.3A2.3,2.3,0,0,1,118.8,257.68Z"/><path class="cls-8" d="M151.46,87l-.33,0-1,0-3.53.06c-3,0-7.1,0-11.65,0s-8.67,0-11.65,0l-3.53-.06-1,0-.34,0a1.18,1.18,0,0,1,.34,0l1,0,3.53-.06c3,0,7.1,0,11.65,0s8.67,0,11.65,0l3.53.06,1,0A1.06,1.06,0,0,1,151.46,87Z"/><path class="cls-8" d="M197.76,225.52l-3.09-3.1-2.94,2.93,0-8.86h6ZM194.67,222l.1.1,2.72,2.73v-8.09H192v7.94Z"/><path class="cls-8" d="M119.33,224.59l-1.44-.65a4,4,0,1,1-1.94-7.45,4,4,0,0,1,3,6.65ZM116,216.77a3.74,3.74,0,1,0,.06,7.47,3.92,3.92,0,0,0,1.8-.57l.06,0,1.06.47-.24-1.05,0-.05a3.73,3.73,0,0,0-2.79-6.24Z"/><path class="cls-8" d="M128.61,224l-1.65-4-3.1-2.83,7.52-.06Zm-4.05-6.6,2.64,2.42,1.41,3.44,2.37-5.91Z"/><rect class="cls-8" x="126.81" y="218.35" width="4.9" height="0.27" transform="translate(-98.24 105.84) rotate(-33.05)"/><path class="cls-5" d="M107.49,217.94a2.33,2.33,0,0,0-4.59.16,2.33,2.33,0,0,0-4.59-.08,3.08,3.08,0,0,0,.57,2.26,9,9,0,0,0,1.65,1.73l2.45,2.18c.82-.75,1.53-1.46,2.35-2.22a9.25,9.25,0,0,0,1.62-1.75A3.11,3.11,0,0,0,107.49,217.94Z"/><circle class="cls-1" cx="106.8" cy="87.01" r="5.11"/><path class="cls-7" d="M195.83,196.23c0,.1-21.41.18-47.81.18s-47.81-.08-47.81-.18,21.4-.18,47.81-.18S195.83,196.13,195.83,196.23Z"/><path class="cls-7" d="M195.83,188.27c0,.1-21.41.18-47.81.18s-47.81-.08-47.81-.18,21.4-.19,47.81-.19S195.83,188.17,195.83,188.27Z"/><path class="cls-7" d="M152.26,204.3c0,.1-11.65.18-26,.18s-26-.08-26-.18,11.65-.18,26-.18S152.26,204.2,152.26,204.3Z"/><path class="cls-8" d="M145.83,291.06a2,2,0,1,1-2-2.07A2,2,0,0,1,145.83,291.06Z"/><path class="cls-8" d="M152.13,291.09a2,2,0,1,1-2-2.08A2.05,2.05,0,0,1,152.13,291.09Z"/><path class="cls-8" d="M158.42,291.11a2,2,0,1,1-2-2.07A2,2,0,0,1,158.42,291.11Z"/><rect class="cls-4" x="94.58" y="97.11" width="113.14" height="69.19"/><polygon class="cls-3" points="105.03 166.32 137.45 122.92 157.55 150.06 171.17 135.55 197.89 166.29 105.03 166.32"/><path class="cls-3" d="M166.07,117.6a7.31,7.31,0,1,1-7.31-7.31A7.31,7.31,0,0,1,166.07,117.6Z"/><path class="cls-8" d="M207.42,230.61c0-1.48-.06-64-.16-156.52l.16.17-113.13,0h0l.18-.19c0,58.54,0,112.71,0,156.52l-.15-.15,113.14.15-113.14.15h-.15v-.15c0-43.81,0-98,0-156.52v-.18H207.59v.17c0,46.31-.06,85.46-.08,113,0,13.76,0,24.64,0,32.08,0,3.71,0,6.56,0,8.49,0,1,0,1.69,0,2.18S207.42,230.61,207.42,230.61Z"/><path class="cls-9" d="M154.26,250l2.5-8.41c.44-1.83,1-4,1.8-6.43a17.33,17.33,0,0,1,4.14-6.2c2.56-2.59,3.77-2.61,5.49-4a5.71,5.71,0,0,1,.48-.32,2.82,2.82,0,0,0,.83-.73c1.48-1.6.06-4.08-2.94-3.84-2.27.18-6,.83-12,7l-.22.26c-3.15,4.1-6.11-7.59-6.64-11.94a4.56,4.56,0,0,0-6.17-3.53L127,218.75a6.86,6.86,0,0,0-4.27.15,4.33,4.33,0,0,0-2.78,5.15l5.92,23.67-17.41,57.94H146Z"/><path class="cls-5" d="M183.09,196.82l-11.6,22.73-5.8-1.61-29.16,23.72a5.9,5.9,0,0,1-8.2-.73L117.22,228s22.39-9.65,26.53-17.63-.65-9.79-.65-9.79l10.54-12Z"/><path class="cls-5" d="M168,150.38s-17-3.76-40.88-26.74S92,70.14,89.11,70.29s-15.69-5.78-40,47.06-14.72,65.12-9.89,65,37.66-9.25,58.16-6.92,46.85,13,46.85,13Z"/><path class="cls-5" d="M204.12,179.18l-5.79,11-2.6,4.93A14.38,14.38,0,0,1,177,201.5l-36.4-12.69,21.2-48.39,36.37,19.38A14.38,14.38,0,0,1,204.12,179.18Z"/><g class="cls-10"><path d="M204.12,179.18l-5.79,11-2.6,4.93A14.38,14.38,0,0,1,177,201.5l-36.4-12.69,21.2-48.39,36.37,19.38A14.38,14.38,0,0,1,204.12,179.18Z"/></g><path class="cls-5" d="M51.09,118.32c-12.93,28.62-18.31,54.13-12,57s21.86-18.06,34.79-46.69,18.31-54.13,12-57S64,89.69,51.09,118.32Z"/><g class="cls-11"><path d="M51.09,118.32c-12.93,28.62-18.31,54.13-12,57s21.86-18.06,34.79-46.69,18.31-54.13,12-57S64,89.69,51.09,118.32Z"/></g><polygon class="cls-5" points="207.24 195.1 197.38 192 203.48 180.39 210.88 184.99 207.24 195.1"/><g class="cls-12"><polygon points="203.48 180.39 197.38 192 199.41 192.64 204.37 180.94 203.48 180.39"/></g><path class="cls-5" d="M196.69,183.07c-.15.32-5.07-1.6-11-4.28s-10.62-5.11-10.48-5.43,5.07,1.6,11,4.28S196.83,182.75,196.69,183.07Z"/><path class="cls-5" d="M199.72,176.15c-.16.32-4.61-1.56-9.95-4.19s-9.55-5-9.39-5.33,4.6,1.56,10,4.19S199.87,175.84,199.72,176.15Z"/><path class="cls-5" d="M192.86,190.32c-.05.17-1.23-.1-3.1-.68-.93-.29-2-.65-3.26-1.08s-2.48-1.08-3.83-1.69c-5.4-2.51-9.52-5-9.39-5.25s4.57,1.62,9.92,4.1c1.34.61,2.58,1.28,3.75,1.77s2.24.92,3.12,1.31C191.83,189.58,192.91,190.15,192.86,190.32Z"/><path class="cls-5" d="M77.44,112s-14.76-9.15-22.83,10.79S62.06,146,62.06,146A132.51,132.51,0,0,0,77.44,112Z"/><g class="cls-11"><path d="M93.14,88.18A21.23,21.23,0,0,1,92.56,92c-.46,2.44-1.12,6-2.07,10.32-.62,2.14-1.31,4.48-2,7-.37,1.25-.75,2.55-1.15,3.89-.19.66-.39,1.34-.6,2s-.51,1.35-.76,2c-1.07,2.74-2.18,5.62-3.34,8.6-.29.75-.58,1.5-.88,2.26s-.69,1.48-1,2.23l-2.2,4.52-2.2,4.52c-.37.74-.69,1.5-1.11,2.2L74,143.66l-4.7,7.94c-.39.63-.73,1.27-1.13,1.87s-.82,1.16-1.23,1.73l-2.35,3.31-4.23,5.92c-2.82,3.42-5.19,6.12-6.82,8a21.51,21.51,0,0,1-2.64,2.81,25.24,25.24,0,0,1,2.26-3.12l6.51-8.25c1.24-1.83,2.61-3.82,4.07-6,.73-1.07,1.49-2.17,2.28-3.31l1.19-1.73c.39-.6.73-1.24,1.1-1.86l4.61-7.93L74.08,141c.41-.69.72-1.45,1.1-2.18.71-1.48,1.44-3,2.17-4.49l2.19-4.49c.34-.75.75-1.46,1-2.21s.59-1.5.88-2.24l3.38-8.52c.26-.68.56-1.34.78-2s.42-1.35.63-2c.41-1.33.81-2.61,1.2-3.85.78-2.47,1.51-4.78,2.17-6.9,1-4.25,1.86-7.71,2.46-10.18A23.62,23.62,0,0,1,93.14,88.18Z"/></g><g class="cls-10"><path d="M120.76,226.44a28.74,28.74,0,0,0,4.71,6.88,9.7,9.7,0,0,0,7.51,3.06c2.78-.28,5.41-2.58,5.44-5.37,1.33,1,3.37.45,4.47-.79a7.8,7.8,0,0,0,1.6-4.65,4.37,4.37,0,0,0,5.53-1.5,7.12,7.12,0,0,0,.7-6,21.13,21.13,0,0,0-2.9-5.57,7.72,7.72,0,0,0,4.11-.42c1.25-.63,2.09-2.28,1.36-3.47a3.41,3.41,0,0,0-2-1.3c-2.18-.68-3.71-1.23-6-1-.52,0,.91,6-13.36,14.19A119.14,119.14,0,0,1,120.76,226.44Z"/></g><path class="cls-13" d="M152.89,235.1c0,.07-1-.12-2.5-.07a14.1,14.1,0,0,0-10.48,5c-1,1.18-1.45,2-1.51,2a2.1,2.1,0,0,1,.28-.62,11.3,11.3,0,0,1,1-1.54,13.43,13.43,0,0,1,4.74-3.81,13.26,13.26,0,0,1,5.94-1.31,11.2,11.2,0,0,1,1.85.16A2.16,2.16,0,0,1,152.89,235.1Z"/><path class="cls-9" d="M121.69,222.64c2.3,2.21,3.87,4.65,6.28,6.87,1.1,1,2.8,2.93,4.27,3.18s2.41.06,3-1.31c.47-1.11-.38-2.63-1-3.55-1.54-2.41-3-4.29-4.15-6.16-.54-.88.15-1.06.41-.65,1.11,1.14,2.76,2.14,3.75,3.38,1.35,1.71,1.6,4,5.15,3.26a3,3,0,0,0,1.32-.55,3.55,3.55,0,0,0,.83-4.22,11.43,11.43,0,0,0-2-3c1.51,1.7,3.16,3.5,5.57,3.69a3.29,3.29,0,0,0,3.36-1.82c.71-1.61-.31-3.17-1.33-4.43a45.74,45.74,0,0,0-6-6.17,4.61,4.61,0,0,0-2.93-1.09c-1.24,0-2.8.23-3.56,1.31a4.82,4.82,0,0,0-1,3.7s-3.12-1.58-5.62.07a8,8,0,0,0-3.13,4.5Z"/><path class="cls-9" d="M138.28,209.4a3.73,3.73,0,0,1-.44-4.22c.53-1,1.2-2,1.87-2.27,3-1,15.92,1.24,15.81,4.11s-1.07,4.25-8.1,3.24c-1.24-.18-3.18-.42-3.18-.42l-1.69,2.54Z"/><path class="cls-13" d="M140.6,221.44a23.63,23.63,0,0,0-3.1-3.75,23.41,23.41,0,0,0-4-2.72,4.31,4.31,0,0,1,1.37.48,12.27,12.27,0,0,1,5.15,4.67A4.34,4.34,0,0,1,140.6,221.44Z"/><path class="cls-13" d="M142.78,212.6c-.07.06-.92-.63-2.09-1.35a15.73,15.73,0,0,0-1.52-.83c-.4-.19-.66-.24-.66-.3s.3-.09.75,0a7,7,0,0,1,1.63.77A5.2,5.2,0,0,1,142.78,212.6Z"/><path class="cls-13" d="M145,209.93a5.55,5.55,0,0,1-2.49-.28,4.5,4.5,0,0,1-1.6-.84c-.36-.3-.5-.55-.47-.58a10.32,10.32,0,0,0,2.18,1.07A18.64,18.64,0,0,1,145,209.93Z"/><path class="cls-13" d="M132.36,225a9.33,9.33,0,0,1-1.18-1.54,14,14,0,0,0-3-3.43,6.07,6.07,0,0,0-4.29-1.14,6.94,6.94,0,0,0-1.8.58s.12-.15.41-.33a4.38,4.38,0,0,1,1.35-.51,6,6,0,0,1,4.54,1.1,12.18,12.18,0,0,1,3,3.59A12,12,0,0,1,132.36,225Z"/><path class="cls-13" d="M142.27,253.65a39.48,39.48,0,0,1-5.29.76,39.68,39.68,0,0,1-5.34.4,39.48,39.48,0,0,1,5.3-.76A39.49,39.49,0,0,1,142.27,253.65Z"/><polygon class="cls-5" points="253.72 18.36 254.52 19.82 255.98 20.62 254.52 21.42 253.72 22.88 252.92 21.42 251.46 20.62 252.92 19.82 253.72 18.36"/><polygon class="cls-5" points="270.42 54.57 271.22 56.03 272.68 56.83 271.22 57.62 270.42 59.08 269.62 57.62 268.16 56.83 269.62 56.03 270.42 54.57"/><polygon class="cls-5" points="2.76 151.15 3.56 152.61 5.02 153.41 3.56 154.21 2.76 155.67 1.96 154.21 0.5 153.41 1.96 152.61 2.76 151.15"/><polygon class="cls-5" points="231.81 27.36 233.66 30.73 237.03 32.58 233.66 34.42 231.81 37.8 229.97 34.42 226.59 32.58 229.97 30.73 231.81 27.36"/><polygon class="cls-5" points="17.73 128.2 19.57 131.57 22.93 133.41 19.57 135.25 17.73 138.61 15.89 135.25 12.53 133.41 15.89 131.57 17.73 128.2"/><polygon class="cls-5" points="274.96 208.48 276.81 211.84 280.17 213.68 276.81 215.52 274.96 218.89 273.12 215.52 269.76 213.68 273.12 211.84 274.96 208.48"/></g></g></svg>