<svg xmlns="http://www.w3.org/2000/svg" viewBox="0 0 300 407.01"><defs><style>.cls-1,.cls-3{fill:#8bc543;}.cls-1{stroke:#006738;stroke-miterlimit:10;stroke-width:21.56px;}.cls-2{fill:#006738;}.cls-4{fill:#221f1f;opacity:0.4;}.cls-5{fill:#744c29;}.cls-6{fill:#8a5d3b;}.cls-7{fill:#f0f1f1;}.cls-8{fill:#5f3813;}.cls-9{fill:#e8af2e;}.cls-10{fill:#f9ca35;}.cls-11{fill:#c38728;}.cls-12{fill:#fff;}</style></defs><g id="Layer_2" data-name="Layer 2"><g id="Capa_1" data-name="Capa 1"><rect class="cls-1" x="100.72" y="90.01" width="162.91" height="78.28" transform="translate(-25.51 211.22) rotate(-56.9)"/><path class="cls-2" d="M199.34,102.82a31.43,31.43,0,1,0,9.16,43.5A31.42,31.42,0,0,0,199.34,102.82Z"/><path class="cls-2" d="M248.09,99.73,259.46,82.3,242,70.93A20.81,20.81,0,0,0,248.09,99.73Z"/><path class="cls-3" d="M196.7,121.65a8.32,8.32,0,0,0-6.94-1.12q-3.72,1-8.28,5.69t-6.4,5.58a3.48,3.48,0,0,1-3.64-.3q-4.08-2.66-.16-8.66,4.18-6.42,9.53-4l3.81-7q-10.37-4.35-18.25,7.75A20,20,0,0,0,162.94,130a8.86,8.86,0,0,0,4.17,8.25,9.51,9.51,0,0,0,7.62,1.51q3.9-.9,8.25-5.42a44,44,0,0,1,6.26-5.73,3.14,3.14,0,0,1,3.63-.07q2.82,1.85-.63,7.15t-6.62,3.6l-4.16,6.91q8.07,4.45,15.64-7.16c2.56-3.91,3.7-7.42,3.44-10.5A8.58,8.58,0,0,0,196.7,121.65Z"/><rect class="cls-3" x="195.39" y="137.34" width="7.59" height="6.91" transform="translate(-27.55 230.74) rotate(-56.89)"/><rect class="cls-3" x="160.86" y="114.83" width="7.59" height="6.91" transform="translate(-24.35 191.64) rotate(-56.9)"/><path class="cls-2" d="M183.55,57.64a20.81,20.81,0,0,0,28.8-6.06L194.92,40.22Z"/><path class="cls-2" d="M117.3,159.26l-11.36,17.43,17.43,11.36A20.8,20.8,0,0,0,117.3,159.26Z"/><path class="cls-2" d="M153,207.4l17.44,11.36,11.36-17.42A20.81,20.81,0,0,0,153,207.4Z"/><path class="cls-2" d="M214.56,79.49a7.1,7.1,0,1,0,2.07,9.82A7.09,7.09,0,0,0,214.56,79.49Z"/><path class="cls-2" d="M157.54,166.93a7.09,7.09,0,1,0,2.07,9.82A7.09,7.09,0,0,0,157.54,166.93Z"/><rect class="cls-1" x="83.06" y="76.15" width="162.92" height="78.28" transform="translate(-30.87 162) rotate(-48.47)"/><path class="cls-2" d="M185.36,91.77a31.43,31.43,0,1,0,2.69,44.37A31.43,31.43,0,0,0,185.36,91.77Z"/><path class="cls-2" d="M234,95.85l13.8-15.57-15.58-13.8A20.81,20.81,0,0,0,234,95.85Z"/><path class="cls-3" d="M180,110a8.31,8.31,0,0,0-6.7-2.12c-2.55.28-5.56,1.76-9,4.41s-5.86,4.18-7.15,4.58a3.49,3.49,0,0,1-3.56-.82q-3.63-3.22,1.12-8.59,5.09-5.74,10-2.55l4.8-6.39q-9.61-5.83-19.19,5a20,20,0,0,0-4.93,9.81,8.9,8.9,0,0,0,2.92,8.78,9.55,9.55,0,0,0,7.32,2.61q4-.32,9-4.16a43.3,43.3,0,0,1,7-4.74,3.11,3.11,0,0,1,3.6.47q2.52,2.24-1.68,7t-7.06,2.59l-5.14,6.23q7.32,5.59,16.53-4.8,4.64-5.24,4.94-9.87A8.59,8.59,0,0,0,180,110Z"/><rect class="cls-3" x="175.84" y="125.86" width="7.59" height="6.9" transform="translate(-36.3 177.89) rotate(-48.43)"/><rect class="cls-3" x="144.99" y="98.53" width="7.6" height="6.91" transform="translate(-26.2 145.78) rotate(-48.48)"/><path class="cls-2" d="M176.37,44.77A20.81,20.81,0,0,0,205.74,43l-15.57-13.8Z"/><path class="cls-2" d="M95.94,135.56l-13.8,15.58,15.57,13.8A20.83,20.83,0,0,0,95.94,135.56Z"/><path class="cls-2" d="M124.23,188.43l15.58,13.8,13.8-15.58A20.82,20.82,0,0,0,124.23,188.43Z"/><path class="cls-2" d="M203.83,70.92a7.09,7.09,0,1,0,.61,10A7.09,7.09,0,0,0,203.83,70.92Z"/><path class="cls-2" d="M134.62,149.05a7.1,7.1,0,1,0,.6,10A7.11,7.11,0,0,0,134.62,149.05Z"/><rect class="cls-1" x="66.49" y="58.2" width="162.92" height="78.28" transform="translate(-28.06 117.01) rotate(-39.72)"/><path class="cls-2" d="M127.86,73.17a31.43,31.43,0,1,0,44.26,4.09A31.43,31.43,0,0,0,127.86,73.17Z"/><path class="cls-2" d="M219.61,88.7l16-13.3-13.3-16A20.81,20.81,0,0,0,219.61,88.7Z"/><path class="cls-3" d="M157.74,91.35c-2.56-.11-5.77.89-9.6,3s-6.42,3.24-7.76,3.44A3.49,3.49,0,0,1,137,96.42q-3.11-3.75,2.41-8.33,5.9-4.89,10.28-1l5.72-5.59q-8.62-7.22-19.73,2a19.92,19.92,0,0,0-6.35,9,8.87,8.87,0,0,0,1.54,9.11,9.53,9.53,0,0,0,6.84,3.7q4,.28,9.49-2.74a42.33,42.33,0,0,1,7.66-3.62,3.11,3.11,0,0,1,3.49,1q2.15,2.6-2.72,6.65t-7.37,1.48l-6,5.37q6.38,6.64,17.06-2.22,5.39-4.47,6.38-9A8.56,8.56,0,0,0,164,94.46,8.28,8.28,0,0,0,157.74,91.35Z"/><rect class="cls-3" x="156.96" y="110.04" width="7.59" height="6.91" transform="translate(-35.42 128.92) rotate(-39.72)"/><rect class="cls-3" x="130.62" y="78.34" width="7.59" height="6.91" transform="translate(-21.22 104.9) rotate(-39.77)"/><path class="cls-2" d="M170.38,29.43a20.81,20.81,0,0,0,29.3,2.72l-13.3-16Z"/><path class="cls-2" d="M61.07,120.24l13.29,16a20.81,20.81,0,0,0,2.71-29.31Z"/><path class="cls-2" d="M97,163.5l13.3,16,16-13.29A20.81,20.81,0,0,0,97,163.5Z"/><path class="cls-2" d="M183.56,58.53a7.09,7.09,0,1,0,10,.93A7.09,7.09,0,0,0,183.56,58.53Z"/><path class="cls-2" d="M103.27,125.24a7.09,7.09,0,1,0,10,.92A7.09,7.09,0,0,0,103.27,125.24Z"/><path class="cls-4" d="M142,382.18c-82.84,0-142,5.56-142,12.42S59.19,407,142,407s158-5.55,158-12.41S224.87,382.18,142,382.18Z"/><path class="cls-5" d="M256.64,231.38H71.85a8.15,8.15,0,0,0-8.15,8.14V388.64a8.15,8.15,0,0,0,8.15,8.14H256.64a8.15,8.15,0,0,0,8.15-8.14V239.52A8.15,8.15,0,0,0,256.64,231.38Z"/><path class="cls-6" d="M63.7,239.52V388.64a8.15,8.15,0,0,0,8.15,8.14h92.39V231.38H71.85A8.15,8.15,0,0,0,63.7,239.52Z"/><path class="cls-7" d="M139.63,247H126a1.44,1.44,0,1,0,0,2.87h13.59a1.44,1.44,0,1,0,0-2.87Z"/><path class="cls-7" d="M161.46,378.31H147.87a1.44,1.44,0,1,0,0,2.88h13.59a1.44,1.44,0,1,0,0-2.88Z"/><path class="cls-7" d="M162.29,247h-13.6a1.44,1.44,0,1,0,0,2.87h13.6a1.44,1.44,0,1,0,0-2.87Z"/><path class="cls-7" d="M184.12,378.31h-13.6a1.44,1.44,0,1,0,0,2.88h13.6a1.44,1.44,0,1,0,0-2.88Z"/><path class="cls-7" d="M93.51,378.31H79.92a1.47,1.47,0,0,0-1.49,1.34,1.44,1.44,0,0,0,1.39,1.53l.49,0h13.2a1.44,1.44,0,1,0,0-2.88Z"/><path class="cls-7" d="M138.81,378.31H125.22a1.44,1.44,0,1,0,0,2.88h13.59a1.44,1.44,0,1,0,0-2.88Z"/><path class="cls-7" d="M184.94,247H171.35a1.44,1.44,0,1,0,0,2.87h13.59a1.44,1.44,0,1,0,0-2.87Z"/><path class="cls-7" d="M94.33,247H80.74a1.44,1.44,0,1,0,0,2.87H94.33a1.44,1.44,0,1,0,0-2.87Z"/><path class="cls-7" d="M117,247H103.39a1.44,1.44,0,1,0,0,2.87H117a1.44,1.44,0,1,0,0-2.87Z"/><path class="cls-7" d="M116.16,378.31H102.57a1.44,1.44,0,1,0,0,2.88h13.59a1.44,1.44,0,1,0,0-2.88Z"/><path class="cls-7" d="M248.3,350a1.47,1.47,0,0,0-1.5,1.44V364.5a1.5,1.5,0,0,0,3,0V351.44A1.46,1.46,0,0,0,248.3,350Z"/><path class="cls-7" d="M248.3,306.47a1.47,1.47,0,0,0-1.5,1.44V321a1.5,1.5,0,0,0,3,0V307.91A1.46,1.46,0,0,0,248.3,306.47Z"/><path class="cls-7" d="M206.76,378.31H193.18a1.44,1.44,0,1,0,0,2.88h13.58a1.44,1.44,0,1,0,0-2.88Z"/><path class="cls-7" d="M248.3,328.24a1.47,1.47,0,0,0-1.5,1.43v13.06a1.5,1.5,0,0,0,3,0V329.67A1.46,1.46,0,0,0,248.3,328.24Z"/><path class="cls-7" d="M248.3,262.94a1.47,1.47,0,0,0-1.5,1.44v13.05a1.5,1.5,0,0,0,3,0V264.38A1.46,1.46,0,0,0,248.3,262.94Z"/><path class="cls-7" d="M241.2,247h-1.9a1.44,1.44,0,1,0,0,2.87h1.9a5.35,5.35,0,0,1,5.6,5v.79a1.5,1.5,0,0,0,3,0v-.79C249.79,250.52,245.94,247,241.2,247Z"/><path class="cls-7" d="M248.3,284.71a1.47,1.47,0,0,0-1.5,1.44V299.2a1.5,1.5,0,0,0,3,0V286.15A1.46,1.46,0,0,0,248.3,284.71Z"/><path class="cls-7" d="M229.42,378.31H215.83a1.44,1.44,0,1,0,0,2.88h13.59a1.44,1.44,0,1,0,0-2.88Z"/><path class="cls-7" d="M207.59,247H194a1.44,1.44,0,1,0,0,2.87h13.59a1.44,1.44,0,1,0,0-2.87Z"/><path class="cls-7" d="M248.3,371.81a1.5,1.5,0,0,0-1.5,1.47,5.34,5.34,0,0,1-5.6,5h-2.72a1.44,1.44,0,1,0,0,2.88h2.72c4.74,0,8.59-3.55,8.59-7.91v-.08A1.42,1.42,0,0,0,248.3,371.81Z"/><path class="cls-7" d="M230.24,247H216.65a1.44,1.44,0,1,0,0,2.87h13.59a1.44,1.44,0,1,0,0-2.87Z"/><path class="cls-8" d="M272.72,282H191.07a6.36,6.36,0,0,0-6.36,6.35v51.5a6.36,6.36,0,0,0,6.36,6.35h81.65a6.36,6.36,0,0,0,6.35-6.35v-51.5A6.36,6.36,0,0,0,272.72,282Z"/><path class="cls-7" d="M216.59,301.76a12.32,12.32,0,1,0,12.33,12.32A12.33,12.33,0,0,0,216.59,301.76Z"/><path class="cls-9" d="M51.48,328a36,36,0,1,0,24.31,44.75A36,36,0,0,0,51.48,328Z"/><path class="cls-10" d="M49.64,334.24a29.51,29.51,0,1,0,19.91,36.67A29.52,29.52,0,0,0,49.64,334.24Z"/><path class="cls-11" d="M46.35,346q-6.47-1.94-10.65-.32a8.3,8.3,0,0,0-5.32,5.44,8,8,0,0,0,.86,6.72Q33.16,361,38.75,364c3.72,2,6,3.42,6.9,4.39a3.37,3.37,0,0,1,.73,3.45q-1.35,4.49-8,2.51-7.08-2.13-6.29-7.73L24.59,365q-1.21,10.77,12.13,14.77a19.23,19.23,0,0,0,10.58.33A8.54,8.54,0,0,0,53.79,374a9.16,9.16,0,0,0-.67-7.45c-1.27-2.25-3.69-4.29-7.27-6.16a40.12,40.12,0,0,1-7-4.23,3,3,0,0,1-1.06-3.33c.62-2.08,2.89-2.53,6.79-1.36s5.59,2.87,5.12,5.13l7.53,2Q59.16,349.89,46.35,346Z"/><rect class="cls-11" x="44.08" y="339.98" width="6.66" height="7.32" transform="matrix(0.29, -0.96, 0.96, 0.29, -295.35, 290.27)"/><rect class="cls-11" x="32.67" y="378.04" width="6.66" height="7.32" transform="translate(-339.93 306.44) rotate(-73.29)"/><path class="cls-12" d="M16.22,330.09c0,2.9-1.09,7-2.33,8.2s-5.16,2-7.92,2c2.83,0,7,1.13,8.06,2.19s2.19,5.23,2.19,8.06c0-2.83,1.25-7.13,2.18-8.06s5.23-2.19,8.06-2.19c-2.83,0-7-1.1-8.06-2.18S16.22,332.92,16.22,330.09Z"/><path class="cls-12" d="M23.06,344.87a5.3,5.3,0,0,1-.83,2.92,5,5,0,0,1-2.82.73,5.58,5.58,0,0,1,2.87.78,5.55,5.55,0,0,1,.78,2.87,5.92,5.92,0,0,1,.77-2.87,5.94,5.94,0,0,1,2.87-.78,5.49,5.49,0,0,1-2.87-.78A5.43,5.43,0,0,1,23.06,344.87Z"/><path class="cls-12" d="M9.71,349.76a7.35,7.35,0,0,1-1.15,4.05c-.63.63-2.55,1-3.91,1a7.69,7.69,0,0,1,4,1.08,7.69,7.69,0,0,1,1.08,4,8.18,8.18,0,0,1,1.08-4,8.26,8.26,0,0,1,4-1.08,7.69,7.69,0,0,1-4-1.08A7.47,7.47,0,0,1,9.71,349.76Z"/></g></g></svg>